HIERARCHY
ROOT Hips
{
	OFFSET 0.00000 0.00000 0.00000
	CHANNELS 6 Xposition Yposition Zposition Zrotation Yrotation Xrotation 
	JOINT LHipJoint
	{
		OFFSET 0 0 0
		CHANNELS 3 Zrotation Yrotation Xrotation
		JOINT LeftUpLeg
		{
			OFFSET 1.53139 -1.83434 0.76626
			CHANNELS 3 Zrotation Yrotation Xrotation
			JOINT LeftLeg
			{
				OFFSET 2.56112 -7.03663 0.00000
				CHANNELS 3 Zrotation Yrotation Xrotation
				JOINT LeftFoot
				{
					OFFSET 2.59983 -7.14299 0.00000
					CHANNELS 3 Zrotation Yrotation Xrotation
					JOINT LeftToeBase
					{
						OFFSET 0.13742 -0.37757 2.00054
						CHANNELS 3 Zrotation Yrotation Xrotation
						End Site
						{
							OFFSET 0.00000 -0.00000 1.02897
						}
					}
				}
			}
		}
	}
	JOINT RHipJoint
	{
		OFFSET 0 0 0
		CHANNELS 3 Zrotation Yrotation Xrotation
		JOINT RightUpLeg
		{
			OFFSET -1.40122 -1.83435 0.76627
			CHANNELS 3 Zrotation Yrotation Xrotation
			JOINT RightLeg
			{
				OFFSET -2.54052 -6.98003 0.00000
				CHANNELS 3 Zrotation Yrotation Xrotation
				JOINT RightFoot
				{
					OFFSET -2.63179 -7.23079 0.00000
					CHANNELS 3 Zrotation Yrotation Xrotation
					JOINT RightToeBase
					{
						OFFSET -0.24131 -0.66299 2.03908
						CHANNELS 3 Zrotation Yrotation Xrotation
						End Site
						{
							OFFSET -0.00000 -0.00000 1.07391
						}
					}
				}
			}
		}
	}
	JOINT LowerBack
	{
		OFFSET 0 0 0
		CHANNELS 3 Zrotation Yrotation Xrotation
		JOINT Spine
		{
			OFFSET 0.01174 2.10302 -0.29778
			CHANNELS 3 Zrotation Yrotation Xrotation
			JOINT Spine1
			{
				OFFSET 0.00772 2.13227 -0.01247
				CHANNELS 3 Zrotation Yrotation Xrotation
				JOINT Neck
				{
					OFFSET 0 0 0
					CHANNELS 3 Zrotation Yrotation Xrotation
					JOINT Neck1
					{
						OFFSET -0.09219 1.60848 0.31481
						CHANNELS 3 Zrotation Yrotation Xrotation
						JOINT Head
						{
							OFFSET 0.13974 1.65456 -0.31134
							CHANNELS 3 Zrotation Yrotation Xrotation
							End Site
							{
								OFFSET 0.04742 1.69515 -0.14578
							}
						}
					}
				}
				JOINT LeftShoulder
				{
					OFFSET 0 0 0
					CHANNELS 3 Zrotation Yrotation Xrotation
					JOINT LeftArm
					{
						OFFSET 3.24909 1.02882 -0.23993
						CHANNELS 3 Zrotation Yrotation Xrotation
						JOINT LeftForeArm
						{
							OFFSET 5.32955 -0.00000 -0.00000
							CHANNELS 3 Zrotation Yrotation Xrotation
							JOINT LeftHand
							{
								OFFSET 3.69232 -0.00000 -0.00000
								CHANNELS 3 Zrotation Yrotation Xrotation
								JOINT LeftFingerBase
								{
									OFFSET 0 0 0
									CHANNELS 3 Zrotation Yrotation Xrotation
									JOINT LeftHandIndex1
									{
										OFFSET 0.53660 -0.00000 -0.00000
										CHANNELS 3 Zrotation Yrotation Xrotation
										End Site
										{
											OFFSET 0.43262 -0.00000 -0.00000
										}
									}
								}
								JOINT LThumb
								{
									OFFSET 0 0 0
									CHANNELS 3 Zrotation Yrotation Xrotation
									End Site
									{
										OFFSET 0.43922 -0.00000 0.43922
									}
								}
							}
						}
					}
				}
				JOINT RightShoulder
				{
					OFFSET 0 0 0
					CHANNELS 3 Zrotation Yrotation Xrotation
					JOINT RightArm
					{
						OFFSET -3.21387 0.93002 -0.34594
						CHANNELS 3 Zrotation Yrotation Xrotation
						JOINT RightForeArm
						{
							OFFSET -5.23431 -0.00000 0.00000
							CHANNELS 3 Zrotation Yrotation Xrotation
							JOINT RightHand
							{
								OFFSET -3.55301 -0.00000 -0.00000
								CHANNELS 3 Zrotation Yrotation Xrotation
								JOINT RightFingerBase
								{
									OFFSET 0 0 0
									CHANNELS 3 Zrotation Yrotation Xrotation
									JOINT RightHandIndex1
									{
										OFFSET -0.77252 -0.00000 -0.00000
										CHANNELS 3 Zrotation Yrotation Xrotation
										End Site
										{
											OFFSET -0.62283 -0.00000 -0.00000
										}
									}
								}
								JOINT RThumb
								{
									OFFSET 0 0 0
									CHANNELS 3 Zrotation Yrotation Xrotation
									End Site
									{
										OFFSET -0.63234 -0.00000 0.63234
									}
								}
							}
						}
					}
				}
			}
		}
	}
}
MOTION
Frames: 13
Frame Time: 0.153846
0.00 0.00 0.00 0 0 0 0 0 0 -21 0 0 0 0 0 0 0 0 0 0 0 0 0 0 21 0 0 0 0 0 0 0 0 0 0 0 0 0 0 0 0 0 0 0 0 0 0 -16 0 0 21 0 0 11 0 0 0 -8 0 0 0 0 0 0 0 0 0 0 0 0 0 0 0 0 0 0 0 0 8 0 0 0 0 0 0 0 0 0 0 0 0 0 0 0 0 0
0.00 0.00 0.00 4.2247 1.8756 0.0064 0.0000 0.0000 0.0000 -26.2595 1.8623 22.6131 0.2638 3.3042 9.1269 -0.2349 -11.2646 11.9384 0.2856 -3.4371 -9.4980 0.0000 0.0000 0.0000 16.6441 6.5057 -26.2373 -2.0302 -8.9288 25.5728 0.0172 -2.3440 -1.1887 -0.0598 -1.5784 4.3417 -6.0302 -1.0804 10.4297 0.6031 -2.1131 0.5869 4.3374 -0.9000 -4.9991 -12.4220 -5.6061 -24.6095 9.4444 -6.1820 27.4587 4.7395 -2.6817 14.2509 -0.0000 0.0000 0.0000 -87.4030 -5.5263 32.8724 17.8029 -27.9040 -4.4566 -0.0000 -0.0000 7.4427 19.8652 24.5649 8.5422 -7.1250 0.0000 -0.0000 -10.3690 55.5996 -2.7185 -0.0000 0.0000 0.0000 91.1066 -8.8229 0.9219 -14.9690 24.1030 -3.2133 0.0000 0.0000 6.4638 -15.1926 8.3878 -2.2684 7.1250 -0.0000 -0.0000 8.4333 -21.3303 4.8397
0.00 0.00 0.00 2.8244 1.3491 -0.4093 0.0000 0.0000 0.0000 -24.4436 0.1252 14.6022 2.0235 8.9149 25.5296 1.3472 -7.6833 25.9216 0.0215 0.9464 2.6014 0.0000 0.0000 0.0000 19.4562 5.5715 -23.0283 -2.2843 -9.4347 27.1649 -0.0153 0.1218 -2.2921 -0.2488 -3.2099 8.8637 -5.1517 -1.0099 10.7452 1.1942 -1.9029 0.5119 4.4485 -0.7990 -5.2869 -12.3306 -5.4306 -24.6258 9.1815 -5.9005 27.8736 4.6874 -2.5933 14.3802 -0.0000 0.0000 0.0000 -88.6089 -2.6537 30.0998 17.3095 -27.2640 -4.2282 -0.0000 -0.0000 8.5948 19.0932 24.7748 8.2535 -7.1250 0.0000 -0.0000 -11.2662 55.6552 -2.9732 -0.0000 0.0000 0.0000 91.0481 -8.5151 0.0403 -14.4017 23.3061 -2.9852 0.0000 0.0000 7.6026 -14.6054 8.5208 -2.2111 7.1250 -0.0000 -0.0000 8.8516 -21.2213 5.1075
0.00 0.00 0.00 0.7717 1.2783 -1.2837 0.0000 0.0000 0.0000 -21.5494 -1.5561 5.1968 5.3518 13.7693 42.3212 0.8583 -9.3483 23.2622 0.0044 -0.4285 -1.1773 0.0000 0.0000 0.0000 22.8686 4.4469 -17.2072 -2.1130 -9.0977 26.1013 -0.1050 0.0575 -6.0982 -0.4587 -4.3446 12.0482 -3.3591 -0.7584 11.1544 1.6079 -1.3360 0.8059 3.7918 -0.5625 -5.2989 -12.2840 -5.7041 -23.7229 9.2674 -6.4655 27.7777 4.5995 -2.8380 14.2300 -0.0000 0.0000 0.0000 -88.1849 -0.9503 31.8032 16.1830 -25.7681 -3.7252 -0.0000 -0.0000 9.2375 21.6586 20.3741 7.8714 -7.1250 0.0000 -0.0000 -6.9597 51.6302 -1.1410 -0.0000 0.0000 0.0000 91.0563 -8.0324 2.2858 -14.9564 24.0853 -3.2081 0.0000 0.0000 7.5751 -14.7591 8.3116 -2.1810 7.1250 -0.0000 -0.0000 8.7482 -21.4277 5.0050
0.00 0.00 0.00 -0.0122 -1.0076 -1.8355 0.0000 0.0000 0.0000 -19.9761 -1.9255 -7.7050 8.2186 16.2777 53.3463 -0.0656 -5.8738 6.1108 0.1344 -2.3632 -6.5106 0.0000 0.0000 0.0000 25.0713 3.7842 -10.3960 -1.9439 -8.7482 25.0109 -0.2995 1.1871 -9.9884 -0.1937 -2.8343 7.8177 -2.0449 0.4115 10.7678 1.1619 0.3635 0.6342 2.3147 0.2422 -5.4006 -12.5513 -5.8511 -22.0853 9.3004 -6.8478 28.3677 4.6152 -3.0745 14.2073 0.0000 0.0000 0.0000 -87.6162 1.7126 30.0323 15.6066 -24.9844 -3.4781 -0.0000 -0.0000 12.5599 17.2911 24.0958 7.2429 -7.1250 0.0000 -0.0000 -12.7952 54.6206 -3.0617 0.0000 0.0000 0.0000 90.7269 -6.3661 7.7293 -15.6027 24.9790 -3.4765 0.0000 0.0000 5.5988 -16.3209 12.7957 -3.7105 7.1250 -0.0000 -0.0000 7.5809 -16.7394 5.1217
0.00 0.00 0.00 -2.7074 -3.7631 -1.7822 0.0000 0.0000 0.0000 -15.0358 -10.4133 -20.9100 4.6386 12.9649 39.2371 0.1614 1.0299 -8.0367 0.2738 -3.3660 -9.2993 0.0000 0.0000 0.0000 28.6895 1.5614 0.1436 -1.6346 -8.0594 22.8947 -0.8211 3.0218 -16.3674 -0.3090 -3.5736 9.8800 1.8791 1.9624 10.7735 0.9944 2.8938 0.5046 -0.4591 1.3884 -5.4721 -12.8710 -6.4384 -21.1996 9.8367 -7.8356 27.7219 4.6806 -3.4784 13.9277 0.0000 -0.0000 0.0000 -87.9114 4.5286 23.4039 15.5299 -24.8791 -3.4458 -0.0000 -0.0000 8.4854 21.0267 22.7496 8.4550 -7.1250 0.0000 -0.0000 -8.4176 53.9752 -1.8673 0.0000 -0.0000 0.0000 88.8224 -2.5248 16.2076 -20.9817 31.8070 -6.0403 0.0000 0.0000 1.1933 -16.5158 8.6106 -2.5419 7.1250 -0.0000 -0.0000 7.4746 -21.0369 4.3296
0.00 0.00 0.00 -3.6012 -5.6631 -1.1206 0.0000 0.0000 0.0000 -12.9079 -10.5587 -22.7807 1.7120 8.2384 23.4406 0.0730 3.2217 -7.3117 0.4570 -4.3365 -12.0252 0.0000 0.0000 0.0000 29.3050 0.3964 5.4860 -1.1720 -6.8716 19.3357 -0.9769 3.6511 -17.8123 -0.0153 -0.7982 2.1937 2.7576 2.5371 10.6191 1.0354 3.7637 0.4046 -1.0318 1.7947 -5.4210 -12.9034 -6.2922 -21.4160 10.1198 -7.6508 27.4658 4.8287 -3.3564 13.8523 0.0000 0.0000 0.0000 -88.1353 5.6021 21.6978 15.7264 -25.1483 -3.5289 -0.0000 -0.0000 8.1683 19.3100 25.9385 8.7136 -7.1250 0.0000 -0.0000 -11.6062 56.8682 -3.4072 0.0000 0.0000 0.0000 88.0869 0.2651 18.3505 -21.9025 32.8667 -6.5329 0.0000 -0.0000 -0.3712 -16.6549 8.8115 -2.6238 7.1250 -0.0000 -0.0000 7.3708 -20.8222 4.3045
0.00 0.00 0.00 0.3602 -6.4616 -3.4274 0.0000 0.0000 0.0000 -21.6360 -7.6897 -15.0372 0.8572 5.9042 16.5067 0.0807 -0.8654 5.7578 0.0712 -1.7209 -4.7348 0.0000 0.0000 0.0000 21.3675 -1.6389 9.1489 -4.9455 -13.3222 40.5867 -0.0880 0.8290 5.9709 -0.0005 0.1434 -0.3941 0.1661 2.5537 9.7273 -0.2500 3.4008 0.3998 -0.8246 1.6709 -5.0088 -12.1645 -5.5898 -20.4848 9.1275 -6.7907 28.8240 4.5161 -3.0748 14.0263 0.0000 -0.0000 0.0000 -89.8477 6.9594 12.0204 11.9767 -19.7697 -2.0944 -0.0000 -0.0000 16.0220 19.0910 23.2845 7.7905 -7.1250 0.0000 -0.0000 -10.6066 54.1515 -2.4063 0.0000 -0.0000 0.0000 90.8740 -1.0482 11.1620 -19.6307 30.1949 -5.3444 0.0000 0.0000 2.5994 -16.3818 7.2499 -2.1246 7.1250 -0.0000 -0.0000 7.6054 -22.4470 4.1610
0.00 0.00 0.00 2.0018 -6.9868 -5.5100 0.0000 0.0000 0.0000 -25.3076 -5.8238 -9.2274 0.9370 6.1658 17.2661 0.0253 0.1186 2.9633 0.0068 0.5333 1.4655 0.0000 0.0000 0.0000 17.5929 -0.5924 1.0678 -9.1250 -16.8875 56.5213 -0.1828 -2.8284 7.5937 -0.1849 -2.7698 7.6385 -0.9292 2.7499 10.8449 -0.4398 3.5149 0.8319 -0.4703 1.7468 -5.2337 -12.2143 -5.5091 -20.4391 8.6300 -6.5129 29.1406 4.3822 -3.0319 14.0967 0.0000 -0.0000 0.0000 -88.8159 7.2790 20.2375 14.0744 -22.8410 -2.8569 -0.0000 -0.0000 10.2971 18.7355 24.5943 8.0348 -7.1250 0.0000 -0.0000 -11.5514 55.4020 -2.9785 0.0000 -0.0000 0.0000 90.4745 -2.9054 11.4911 -17.3321 27.2934 -4.2385 0.0000 0.0000 3.5779 -16.0864 9.8470 -2.8234 7.1250 -0.0000 -0.0000 7.7604 -19.7869 4.7182
0.00 0.00 0.00 4.4139 -2.7756 -6.5899 0.0000 0.0000 0.0000 -30.3189 -4.7227 -2.3109 1.1313 6.7553 18.9924 0.0354 -2.5660 -3.5458 0.0062 0.5067 1.3924 0.0000 0.0000 0.0000 12.5698 0.6155 -13.5155 -11.2542 -18.0573 63.6044 -0.0813 -2.7516 -7.1224 -0.1725 -2.6755 7.3765 -3.8612 1.5714 10.9584 -0.5044 1.5933 1.1894 1.4065 0.8578 -4.9931 -11.9695 -5.1982 -20.4005 7.6814 -5.8670 29.8795 4.0941 -2.8644 14.2781 -0.0000 -0.0000 0.0000 -87.8116 5.4289 23.4411 19.4304 -29.9500 -5.2440 -0.0000 -0.0000 3.7554 20.0403 23.8126 8.3779 -7.1250 0.0000 -0.0000 -9.8584 54.8712 -2.4075 -0.0000 -0.0000 0.0000 90.7154 -3.5771 6.1750 -14.9010 24.0080 -3.1855 0.0000 0.0000 7.3167 -16.3218 10.8008 -3.1410 7.1250 -0.0000 -0.0000 7.5830 -18.7911 4.7781
0.00 0.00 0.00 5.0829 3.2329 -5.2523 0.0000 0.0000 0.0000 -31.7773 -6.1449 -0.5889 1.6842 8.1747 23.2460 0.1484 -7.2582 -7.9742 0.0142 -0.7696 -2.1150 0.0000 0.0000 0.0000 9.9436 4.5216 -20.2949 -7.0942 -15.4107 49.2296 -0.4215 -2.3408 -13.3432 -0.0795 1.8190 -5.0057 -5.7289 0.4808 11.1483 -0.2628 -0.0878 0.9075 2.9687 0.0847 -5.3001 -12.3428 -5.6929 -20.5122 8.0513 -6.5304 29.2905 4.1643 -3.1275 14.1645 -0.0000 0.0000 0.0000 -86.3039 2.7953 26.9443 23.6354 -34.7764 -7.4976 -0.0000 -0.0000 3.4161 20.1508 24.5521 8.6695 -7.1250 0.0000 -0.0000 -10.0663 55.6445 -2.6489 -0.0000 0.0000 0.0000 90.3815 -5.5842 6.5077 -15.7827 25.2251 -3.5529 0.0000 0.0000 6.0758 -15.8979 10.7137 -3.0309 7.1250 -0.0000 -0.0000 7.8827 -18.9079 4.9499
0.00 0.00 0.00 3.4042 13.4431 -3.0660 0.0000 0.0000 0.0000 -29.8526 -10.1681 3.8957 1.8193 8.4792 24.1793 0.0516 -13.0140 -9.7797 0.0003 -0.1078 -0.2963 0.0000 0.0000 0.0000 5.3869 15.2856 -17.3534 -1.7915 -8.4175 23.9894 0.6989 18.1557 -4.8570 -1.1429 6.7886 -19.0907 -4.8172 -0.5728 11.2935 0.4016 -1.3506 0.5343 3.3553 -0.5320 -5.6594 -12.0759 -6.1618 -20.9339 8.4566 -7.3536 28.9799 4.1157 -3.3711 14.2370 0.0000 0.0000 0.0000 -86.2022 0.5373 29.1541 29.3725 -40.3494 -11.0011 -0.0000 0.0000 -0.3905 22.1699 24.3789 9.5475 -7.1250 0.0000 -0.0000 -7.8763 55.8816 -2.1121 0.0000 0.0000 0.0000 89.9244 -6.7089 4.6413 -15.1468 24.3502 -3.2862 0.0000 0.0000 6.5032 -15.3591 8.5042 -2.3261 7.1250 -0.0000 -0.0000 8.3099 -21.2034 4.7915
0.00 0.00 0.00 -18.9145 76.4036 -15.2732 0.0000 0.0000 0.0000 -13.4944 -9.0129 -29.4211 0.6961 5.3334 14.8621 0.1025 2.0493 -7.1683 0.0920 -1.9563 -5.3848 0.0000 0.0000 0.0000 23.7045 -11.2926 12.4799 -0.0509 -1.4559 4.0042 -0.2656 -8.5998 -16.3855 -0.1387 2.4001 -6.6126 4.8429 3.9034 11.9929 0.7013 5.9218 0.4916 -2.9488 2.8007 -5.7769 -11.9630 -5.7981 -19.9336 7.8327 -6.3118 29.2997 4.0955 -2.8615 14.0005 0.0000 0.0000 0.0000 -83.2177 8.8106 2.1139 13.2794 -21.6952 -2.5556 -0.0000 -0.0000 12.1379 23.2590 27.1462 11.0955 -7.1250 0.0000 -0.0000 -7.9504 58.9693 -2.7250 0.0000 0.0000 0.0000 79.7085 3.0517 6.8792 -16.7327 26.5041 -3.9673 0.0000 0.0000 0.2067 -16.9682 6.8825 -2.0941 7.1250 -0.0000 -0.0000 7.1874 -22.8027 3.8697
